<svg width="128" height="128" viewBox="0 0 128 128" xmlns="http://www.w3.org/2000/svg">
  <g fill="none" fill-rule="evenodd">
    <g>
      <path fill="#D32F2F" d="M0 0H128V128H0z"/>
      <path d="M111.269389,29.1232842 C109.7248,23.1351579 105.789811,19.5563789 99.9939368,17.8382316 C98.9649684,17.5312842 97.9102316,17.2781474 96.8486737,17.1280842 C96.1668211,17.0295579 95.4496,17.1538526 94.7488,17.1937684 C91.1909895,17.4021895 87.6357053,17.6179368 84.0804211,17.8288842 C80.3360748,18.0535459 76.5916535,18.2769564 72.8471579,18.4991158 C72.8026947,18.5016421 72.7605053,18.5203368 72.6175158,18.5554526 C72.8004211,18.6868211 72.9244632,18.7805474 73.0535579,18.872 C75.9669053,20.9226105 78.8777263,22.9780211 81.8004211,25.0170105 C82.1167158,25.2398316 82.2010947,25.4224842 82.0745263,25.8117895 C79.5550316,33.7333053 77.0519579,41.6621474 74.5324632,49.5861895 C74.4574316,49.8251789 74.3005474,50.0664421 74.1153684,50.2377263 C65.1971398,58.5307128 56.2699767,66.8140861 47.3338947,75.0878316 C47.0643368,75.3361684 46.6846316,75.5261474 46.3284211,75.6082526 C38.5637895,77.3544421 30.7966316,79.0816842 23.032,80.8137263 C22.8819368,80.8463158 22.7296,80.8650105 22.5421474,80.8981053 C21.1688421,77.0752842 19.8000842,73.2762105 18.4361263,69.4771368 L18.3610947,69.4771368 C18.2696421,70.3605895 18.1713684,71.2417684 18.0844632,72.1254737 C17.8086429,74.860308 17.5352112,77.5953828 17.2641684,80.3306947 C17.0016842,82.9886316 16.7414737,85.6463158 16.4789895,88.3042526 C16.3501474,89.6260211 16.2210526,90.9455158 16.0876632,92.2675368 C16.0805895,92.3402947 16.0313263,92.4082526 16.0010105,92.4810105 L16.0010105,93.6059789 C16.0995368,94.4730105 16.1839158,95.3400421 16.2986105,96.2025263 C16.6384,98.7899789 17.2970105,101.281432 18.5533474,103.587453 C20.8267789,107.759411 24.4219789,110.142737 28.9850105,111.108547 C30.6983579,111.471832 32.4725895,111.572632 34.2185263,111.792926 C34.4623158,111.825768 34.7061053,111.863158 34.9498947,111.898526 L36.0748632,111.898526 C36.6304,111.837642 37.1856842,111.760084 37.7434947,111.722695 C40.7692632,111.516547 43.7950316,111.328842 46.8182737,111.125221 C50.2775579,110.890779 53.7368421,110.642442 57.1984,110.410274 C60.2218947,110.204126 63.2499368,110.016421 66.2731789,109.8128 C69.7349895,109.578358 73.1942737,109.332295 76.6533053,109.097853 C79.6790737,108.893979 82.7023158,108.704 85.7280842,108.500379 C89.1898947,108.268211 92.6491789,108.022147 96.1107368,107.785684 C98.6512,107.6144 101.191663,107.452716 103.734653,107.283958 C104.667368,107.2208 105.600337,107.150568 106.561095,107.082611 C106.6384,106.145095 106.713432,105.231074 106.786189,104.314526 C107.027705,101.169263 107.273768,98.0217263 107.512758,94.8764632 C107.712084,92.2422737 107.906358,89.6101053 108.107958,86.9781895 C108.312084,84.3298526 108.523032,81.6812632 108.729179,79.0354526 C108.897937,76.8370526 109.061895,74.6409263 109.230653,72.4450526 C109.434526,69.7661474 109.645474,67.0872421 109.851621,64.4083368 C110.020379,62.2261053 110.184337,60.0466526 110.350821,57.8646737 C110.559495,55.1554526 110.772716,52.4437053 110.978863,49.7342316 C111.180463,47.1164632 111.374989,44.5007158 111.574063,41.8829474 C111.719326,40.0127158 111.960842,38.1447579 111.993684,36.2745263 C112.035874,33.8717474 111.876463,31.4765474 111.269389,29.1232842 L111.269389,29.1232842 Z M20.2305684,101.316547 C20.2011139,101.324012 20.1713619,101.330249 20.1413895,101.335242 C20.0734316,101.189979 19.9938526,101.044716 19.9352421,100.894653 C18.9274947,98.3539368 18.5033263,95.6987789 18.4257684,92.9824842 C18.4186947,92.7058526 18.4538105,92.4128 18.5452632,92.1551158 C19.4686316,89.5863579 20.4109474,87.0246737 21.3459368,84.4632421 C21.3765053,84.3788632 21.4209684,84.3013053 21.5452632,84.2381474 L20.2305684,101.316547 L20.2305684,101.316547 Z M35.8702316,109.4 C35.8303158,109.409347 35.7881263,109.418695 35.7459368,109.430316 C31.5156211,100.725895 27.2853053,92.0214737 23.0173474,83.2442947 C30.7092211,81.5309474 38.3356632,79.8317474 46.0651789,78.1093053 C42.6675048,88.5397459 39.269189,98.9699775 35.8702316,109.4 L35.8702316,109.4 Z M62.2858947,103.393179 C57.6149895,94.8527158 52.9698526,86.3521684 48.2471579,77.7177263 C59.8156632,81.1537684 71.2505263,84.5473684 82.8028632,87.9786105 C76.4256842,93.8376421 69.7905684,99.1580632 62.2858947,103.393179 L62.2858947,103.393179 Z M84.9426526,85.9254737 C82.1209213,74.3995045 79.2975107,62.8739465 76.4724211,51.3488 C76.5123368,51.3207579 76.5497263,51.2924632 76.5873684,51.2644211 C84.6637474,56.2799158 92.7401263,61.2928842 100.811958,66.3038316 C99.4805895,69.2404211 87.9378526,83.5184 84.9426526,85.9254737 L84.9426526,85.9254737 Z M104.519579,105.190653 C98.4773895,99.5564632 92.4331789,93.9245474 86.3465263,88.2504421 C89.5880421,85.3348211 92.5526737,82.2504421 95.2831158,78.9434947 C98.0112842,75.6388211 100.467368,72.1466947 102.447747,68.3286737 C102.489937,68.3354947 102.529853,68.3428211 102.572042,68.3498947 L104.618105,105.113095 L104.519579,105.190653 L104.519579,105.190653 Z M108.684211,47.8283789 C98.0976842,48.4915368 87.5768421,49.1524211 76.9645474,49.8181053 C79.3903158,42.1590737 81.7951158,34.5677474 84.2183579,26.9132632 C84.3919158,27.0421053 84.5301053,27.1358316 84.6566737,27.2389053 C92.5761684,33.7264842 100.490863,40.2183579 108.421726,46.6917895 C108.852968,47.0434526 108.677389,47.3946105 108.684211,47.8283789 Z M85.5191579,24.3493053 C85.5168842,24.3071158 85.5120842,24.2672 85.5098105,24.2250105 C85.6879158,24.1454316 85.8637474,24.0633263 86.0418526,23.9882947 C89.4473263,22.5493053 92.8525474,21.1055158 96.2650947,19.6852211 C96.5323789,19.5728 96.8721684,19.5351579 97.1556211,19.5892211 C100.111158,20.1518316 102.871916,21.1595789 105.166316,23.1937684 C106.893558,24.7244632 108.027874,26.6298105 108.724126,28.9244632 C100.9408,27.3889684 93.2299789,25.8681263 85.5191579,24.3493053 Z" fill="#FFF" fill-rule="nonzero"/>
      <path d="M19.9210947,65.9453474 C20.0383158,62.7392 20.8727579,59.7109053 22.0679579,56.7697684 C24.0998737,51.7636211 26.9710316,47.2541474 30.3530105,43.0685474 C36.5546105,35.4021895 43.8902737,29.0626526 52.5315368,24.272 C55.7914947,22.4651789 59.1994947,21.0026947 62.8626526,20.2149895 C65.1103158,19.7322105 67.3766737,19.5258105 69.6475789,20.0581053 C73.1748211,20.8852211 75.2138105,23.1796211 75.9168842,26.672 C76.4794947,29.4658526 76.0224842,32.2079158 75.2231579,34.8984421 C73.8968421,39.3584 71.7194105,43.4083368 69.0756211,47.2051368 C62.1171368,57.2032842 53.3376842,65.2235789 42.7066947,71.1859368 C39.5917474,72.9321263 36.3153684,74.3173053 32.8068211,75.0693895 C30.7584842,75.5077053 28.6934737,75.6999579 26.6218947,75.2568421 C23.2048,74.528 20.8798316,72.1163789 20.2447158,68.6384 C20.0830316,67.7524211 20.0244211,66.8454737 19.9210947,65.9453474 L19.9210947,65.9453474 Z" fill="#FFF" fill-rule="nonzero"/>
    </g>
  </g>
</svg>
